<svg width="28" height="26" viewBox="0 0 28 26" fill="none" xmlns="http://www.w3.org/2000/svg">
<path d="M27.859 24.4394C25.9187 21.0974 22.8113 18.5909 19.1345 17.4017C20.896 16.3536 22.2646 14.7562 23.0303 12.8549C23.796 10.9536 23.9163 8.85357 23.3728 6.87726C22.8293 4.90095 21.6521 3.15771 20.0218 1.9153C18.3916 0.672883 16.3986 0 14.3489 0C12.2993 0 10.3063 0.672883 8.67606 1.9153C7.04585 3.15771 5.86859 4.90095 5.32509 6.87726C4.7816 8.85357 4.90193 10.9536 5.6676 12.8549C6.43327 14.7562 7.80194 16.3536 9.56339 17.4017C5.88667 18.5909 2.77938 21.0973 0.83903 24.4391C0.74757 24.5972 0.69935 24.7765 0.699219 24.9592C0.699088 25.1418 0.747053 25.3212 0.838287 25.4794C0.929521 25.6376 1.06081 25.769 1.21894 25.8603C1.37707 25.9517 1.55647 25.9997 1.73908 25.9997L26.959 26C27.1416 26 27.321 25.9519 27.4792 25.8606C27.6373 25.7692 27.7686 25.6379 27.8598 25.4797C27.9511 25.3215 27.999 25.142 27.9989 24.9594C27.9987 24.7768 27.9505 24.5974 27.859 24.4394L27.859 24.4394Z" fill="#1F69A6"/>
</svg>
