<svg width="171" height="60" viewBox="0 0 171 60" fill="none" xmlns="http://www.w3.org/2000/svg">
<path d="M0 0L58.5563 20.8018L5.72501 59.0149" fill="#8AC44B"/>
<path d="M29.945 55.5406C39.914 55.5406 47.9955 46.8992 47.9955 36.2395C47.9955 25.5799 39.914 16.9385 29.945 16.9385C19.976 16.9385 11.8945 25.5799 11.8945 36.2395C11.8945 46.8992 19.976 55.5406 29.945 55.5406Z" fill="url(#paint0_linear)"/>
<path d="M77.8165 37.6157C77.7292 37.0246 77.6039 36.4398 77.4413 35.8648L77.0384 34.4752H72.6057L72.1888 35.8648C72.0071 36.4348 71.8814 37.0212 71.8136 37.6157H68.2285C68.5104 36.9674 68.7562 36.304 68.965 35.6286L72.2722 25.9016C72.4886 25.3392 72.6514 24.7577 72.7585 24.1647H76.7605C76.9003 24.754 77.0766 25.3341 77.2885 25.9016L80.6095 35.6286C80.9014 36.4901 81.1515 37.1571 81.346 37.6157H77.8165ZM74.829 26.9021L73.4394 31.7656H76.3297L74.829 26.9021Z" fill="#8AC44B"/>
<path d="M94.9777 24.1369C94.8869 24.9302 94.8498 25.7287 94.8665 26.5269V35.2117C94.8559 36.0145 94.893 36.8173 94.9777 37.6157H91.7122C91.8146 36.8187 91.8564 36.015 91.8372 35.2117V32.0713H86.6403V35.2117C86.6316 36.0149 86.6733 36.8178 86.7653 37.6157H83.4721C83.5757 36.8188 83.6176 36.0151 83.5971 35.2117V26.5269C83.6159 25.7282 83.5741 24.9293 83.4721 24.1369H86.7653C86.6753 24.9303 86.6335 25.7284 86.6403 26.5269V29.181H91.8095V26.5269C91.8395 25.7289 91.807 24.9298 91.7122 24.1369H94.9777Z" fill="#8AC44B"/>
<path d="M98.5488 37.6157C98.6408 36.8178 98.6779 36.0146 98.66 35.2117V26.4019C98.67 25.6126 98.6282 24.8234 98.535 24.0396C99.2575 24.0396 99.8134 24.0396 100.786 24.0396H104.218C107.248 24.0396 108.929 25.5681 108.929 28.3889C108.997 29.0237 108.922 29.6656 108.709 30.2675C108.497 30.8694 108.152 31.4158 107.699 31.8665C107.247 32.3173 106.7 32.6608 106.097 32.8718C105.495 33.0828 104.853 33.1559 104.218 33.0857H101.717V35.1561C101.717 35.9776 101.759 36.7984 101.842 37.6157H98.5488ZM104.01 30.3343C104.242 30.3546 104.477 30.3227 104.695 30.2411C104.914 30.1594 105.112 30.03 105.274 29.8623C105.436 29.6946 105.559 29.4928 105.634 29.2716C105.709 29.0503 105.733 28.8153 105.705 28.5835C105.735 28.3538 105.711 28.1205 105.636 27.9014C105.562 27.6823 105.438 27.4832 105.274 27.3195C105.11 27.1558 104.911 27.0318 104.692 26.957C104.473 26.8823 104.239 26.8587 104.01 26.8882H101.717V30.3343H104.01Z" fill="#8AC44B"/>
<path d="M114.765 30.9735C114.767 31.5493 114.734 32.1247 114.668 32.6966C114.929 32.1448 115.226 31.611 115.557 31.0986L118.684 26.1517C119.121 25.526 119.48 24.8494 119.754 24.1369H123.102C123.006 24.9344 122.965 25.7376 122.977 26.5408V35.0589C122.954 35.9131 122.996 36.7678 123.102 37.6157H119.837C119.938 36.7766 119.98 35.9315 119.962 35.0867V30.918C119.962 30.376 119.962 29.9314 120.045 29.0837C119.78 29.6511 119.483 30.2032 119.156 30.7373L116.127 35.5591C115.703 36.2265 115.318 36.9178 114.974 37.6296H111.625C111.704 36.8261 111.741 36.019 111.736 35.2117V26.5964C111.748 25.7751 111.711 24.9537 111.625 24.1369H114.89C114.791 24.9527 114.749 25.7746 114.765 26.5964V30.9735Z" fill="#8AC44B"/>
<path d="M134.372 37.6157C134.09 36.9515 133.765 36.3063 133.399 35.6842L132.01 33.1691C131.878 32.789 131.623 32.4638 131.286 32.2448C130.949 32.0258 130.548 31.9256 130.148 31.9601H129.758V35.2117C129.758 36.0177 129.759 36.7402 129.884 37.6157H126.576C126.669 36.8178 126.711 36.0149 126.701 35.2117V26.5269C126.713 25.7283 126.671 24.9299 126.576 24.1369H129.884C129.79 24.93 129.749 25.7284 129.758 26.5269V29.181H130.134C130.426 29.1474 130.704 29.0371 130.94 28.8614C131.153 28.6861 131.344 28.4854 131.509 28.2639L133.177 26.0545C134.358 24.4982 135.261 23.9006 136.47 23.9006C136.993 23.8864 137.512 23.9959 137.985 24.2202L137.22 26.9994C137.076 26.8548 136.883 26.7704 136.679 26.7632C136.373 26.7632 136.109 26.9438 135.748 27.4162L134.358 29.2644C133.931 29.8472 133.326 30.2762 132.635 30.4872C133.174 30.5826 133.681 30.8086 134.112 31.1453C134.543 31.482 134.885 31.9192 135.108 32.4187L136.901 35.3785C137.304 36.0316 137.957 37.0043 138.402 37.6435L134.372 37.6157Z" fill="#8AC44B"/>
<path d="M148.683 30.9734C148.683 31.4737 148.683 32.1824 148.586 32.6965C148.847 32.1447 149.144 31.6109 149.475 31.0985L152.602 26.1516C153.033 25.5226 153.392 24.8466 153.672 24.1368H157.021C156.924 24.9343 156.883 25.7375 156.896 26.5407V35.0588C156.873 35.913 156.914 36.7677 157.021 37.6156H153.755C153.849 36.776 153.891 35.9313 153.88 35.0866V30.9179C153.88 30.3759 153.88 29.9313 153.964 29.0836C153.698 29.651 153.401 30.2031 153.074 30.7372L150.073 35.5451C149.649 36.2125 149.264 36.9038 148.919 37.6156H145.557C145.648 36.813 145.69 36.0055 145.682 35.1977V26.5963C145.698 25.7745 145.656 24.9527 145.557 24.1368H148.822C148.735 24.9536 148.698 25.775 148.711 26.5963L148.683 30.9734Z" fill="#1F69A6"/>
<path d="M166.886 35.156C166.874 35.9777 166.916 36.7994 167.012 37.6156H163.621C163.711 36.7989 163.753 35.9776 163.746 35.156V26.9993H161.926C161.155 26.9906 160.385 27.0278 159.619 27.1105V24.0117C160.375 24.1007 161.136 24.1425 161.898 24.1368H168.61C169.408 24.1476 170.207 24.1058 171 24.0117V27.1105C170.206 27.0209 169.408 26.9838 168.61 26.9993H166.886V35.156Z" fill="#1F69A6"/>
<defs>
<linearGradient id="paint0_linear" x1="11.8945" y1="36.2396" x2="47.9955" y2="36.2396" gradientUnits="userSpaceOnUse">
<stop stop-color="#1D76E8"/>
<stop offset="1" stop-color="#0035A3"/>
</linearGradient>
</defs>
</svg>
