<?xml version="1.0" standalone="no"?>
<!DOCTYPE svg PUBLIC "-//W3C//DTD SVG 20010904//EN"
 "http://www.w3.org/TR/2001/REC-SVG-20010904/DTD/svg10.dtd">
<svg version="1.0" xmlns="http://www.w3.org/2000/svg"
 width="177.000000pt" height="177.000000pt" viewBox="0 0 177.000000 177.000000"
 preserveAspectRatio="xMidYMid meet">
<metadata>
Created by potrace 1.11, written by Peter Selinger 2001-2013
</metadata>
<g transform="translate(0.000000,177.000000) scale(0.100000,-0.100000)"
fill="#000000" stroke="none">
<path d="M4 1727 c3 -23 8 -73 11 -112 3 -38 8 -88 10 -110 2 -22 7 -64 10
-92 3 -29 7 -74 10 -100 7 -66 13 -137 20 -213 4 -36 8 -78 9 -95 2 -16 7 -64
10 -105 4 -41 9 -91 11 -110 2 -19 7 -64 10 -100 3 -36 8 -81 10 -100 2 -19 7
-62 10 -95 14 -165 25 -278 30 -325 14 -131 18 -155 20 -158 2 -2 82 54 179
124 l176 126 39 -34 c111 -101 300 -143 455 -103 241 63 419 308 411 565 -3
74 -12 141 -25 176 -11 28 -13 26 194 174 89 64 141 107 133 111 -11 6 -1435
513 -1487 529 -14 5 -76 27 -138 49 l-113 41 5 -43z"/>
</g>
</svg>
